<svg width="1274" height="1948" xmlns="http://www.w3.org/2000/svg" xmlns:xlink="http://www.w3.org/1999/xlink" xml:space="preserve" overflow="hidden"><defs><clipPath id="clip0"><rect x="751" y="215" width="1274" height="1948"/></clipPath></defs><g clip-path="url(#clip0)" transform="translate(-751 -215)"><rect x="759" y="224" width="1259" height="1930" stroke="#000000" stroke-width="10.3125" stroke-linecap="butt" stroke-linejoin="miter" stroke-miterlimit="8" stroke-opacity="1" fill="#FFFFFF" fill-opacity="1"/><text fill="#000000" fill-opacity="1" font-family="Courier New,Courier New_MSFontService,sans-serif" font-style="normal" font-variant="normal" font-weight="700" font-stretch="normal" font-size="83" text-anchor="start" direction="ltr" writing-mode="lr-tb" unicode-bidi="normal" text-decoration="none" transform="matrix(1 0 0 1 1225.31 325)">IRModule</text><rect x="875.5" y="453.5" width="535" height="123" stroke="#000000" stroke-width="4.58333" stroke-linecap="butt" stroke-linejoin="miter" stroke-miterlimit="8" stroke-opacity="1" fill="#F2F2F2" fill-opacity="1"/><text fill="#000000" fill-opacity="1" font-family="Courier New,Courier New_MSFontService,sans-serif" font-style="normal" font-variant="normal" font-weight="700" font-stretch="normal" font-size="83" text-anchor="start" direction="ltr" writing-mode="lr-tb" unicode-bidi="normal" text-decoration="none" transform="matrix(1 0 0 1 920.731 538)">GlobalVar</text><rect x="878.5" y="726.5" width="999" height="1321" stroke="#000000" stroke-width="4.58333" stroke-linecap="butt" stroke-linejoin="miter" stroke-miterlimit="8" stroke-opacity="1" fill="#FCDCE0" fill-opacity="1"/><text fill="#000000" fill-opacity="1" font-family="Courier New,Courier New_MSFontService,sans-serif" font-style="normal" font-variant="normal" font-weight="700" font-stretch="normal" font-size="83" text-anchor="start" direction="ltr" writing-mode="lr-tb" unicode-bidi="normal" text-decoration="none" transform="matrix(1 0 0 1 1196.54 811)">Functio<tspan fill="#000000" fill-opacity="1" font-family="Courier New,Courier New_MSFontService,sans-serif" font-style="normal" font-variant="normal" font-weight="700" font-stretch="normal" font-size="83" text-anchor="start" direction="ltr" writing-mode="lr-tb" unicode-bidi="normal" text-decoration="none" x="0" y="99">n</tspan></text><rect x="893.5" y="478.5" width="535" height="123" stroke="#000000" stroke-width="4.58333" stroke-linecap="butt" stroke-linejoin="miter" stroke-miterlimit="8" stroke-opacity="1" fill="#F2F2F2" fill-opacity="1"/><text fill="#000000" fill-opacity="1" font-family="Courier New,Courier New_MSFontService,sans-serif" font-style="normal" font-variant="normal" font-weight="700" font-stretch="normal" font-size="83" text-anchor="start" direction="ltr" writing-mode="lr-tb" unicode-bidi="normal" text-decoration="none" transform="matrix(1 0 0 1 938.597 563)">GlobalVar</text><rect x="911.5" y="503.5" width="535" height="123" stroke="#000000" stroke-width="4.58333" stroke-linecap="butt" stroke-linejoin="miter" stroke-miterlimit="8" stroke-opacity="1" fill="#F2F2F2" fill-opacity="1"/><text fill="#000000" fill-opacity="1" font-family="Courier New,Courier New_MSFontService,sans-serif" font-style="normal" font-variant="normal" font-weight="700" font-stretch="normal" font-size="83" text-anchor="start" direction="ltr" writing-mode="lr-tb" unicode-bidi="normal" text-decoration="none" transform="matrix(1 0 0 1 956.462 588)">GlobalVar</text><rect x="903.5" y="751.5" width="999" height="1321" stroke="#000000" stroke-width="4.58333" stroke-linecap="butt" stroke-linejoin="miter" stroke-miterlimit="8" stroke-opacity="1" fill="#FCDCE0" fill-opacity="1"/><text fill="#000000" fill-opacity="1" font-family="Courier New,Courier New_MSFontService,sans-serif" font-style="normal" font-variant="normal" font-weight="700" font-stretch="normal" font-size="83" text-anchor="start" direction="ltr" writing-mode="lr-tb" unicode-bidi="normal" text-decoration="none" transform="matrix(1 0 0 1 1220.85 836)">Functio<tspan fill="#000000" fill-opacity="1" font-family="Courier New,Courier New_MSFontService,sans-serif" font-style="normal" font-variant="normal" font-weight="700" font-stretch="normal" font-size="83" text-anchor="start" direction="ltr" writing-mode="lr-tb" unicode-bidi="normal" text-decoration="none" x="0" y="99">n</tspan></text><rect x="926.5" y="779.5" width="999" height="1322" stroke="#000000" stroke-width="4.58333" stroke-linecap="butt" stroke-linejoin="miter" stroke-miterlimit="8" stroke-opacity="1" fill="#FCDCE0" fill-opacity="1"/><text fill="#000000" fill-opacity="1" font-family="Courier New,Courier New_MSFontService,sans-serif" font-style="normal" font-variant="normal" font-weight="700" font-stretch="normal" font-size="83" text-anchor="start" direction="ltr" writing-mode="lr-tb" unicode-bidi="normal" text-decoration="none" transform="matrix(1 0 0 1 1209.74 864)">Function</text><rect x="986.5" y="906.5" width="880" height="1161" stroke="#000000" stroke-width="4.58333" stroke-linecap="butt" stroke-linejoin="miter" stroke-miterlimit="8" stroke-opacity="1" fill="#F6D7B9" fill-opacity="1"/><text fill="#000000" fill-opacity="1" font-family="Courier New,Courier New_MSFontService,sans-serif" font-style="normal" font-variant="normal" font-weight="700" font-stretch="normal" font-size="83" text-anchor="start" direction="ltr" writing-mode="lr-tb" unicode-bidi="normal" text-decoration="none" transform="matrix(1 0 0 1 1250.71 989)">SeqExpr</text><rect x="1015.5" y="1027.5" width="756" height="634" stroke="#000000" stroke-width="4.58333" stroke-linecap="butt" stroke-linejoin="miter" stroke-miterlimit="8" stroke-opacity="1" fill="#F2F2F2" fill-opacity="1"/><text fill="#000000" fill-opacity="1" font-family="Courier New,Courier New_MSFontService,sans-serif" font-style="normal" font-variant="normal" font-weight="700" font-stretch="normal" font-size="83" text-anchor="start" direction="ltr" writing-mode="lr-tb" unicode-bidi="normal" text-decoration="none" transform="matrix(1 0 0 1 1097.62 1368)">BindingBlock</text><rect x="1042.5" y="1056.5" width="756" height="634" stroke="#000000" stroke-width="4.58333" stroke-linecap="butt" stroke-linejoin="miter" stroke-miterlimit="8" stroke-opacity="1" fill="#F2F2F2" fill-opacity="1"/><text fill="#000000" fill-opacity="1" font-family="Courier New,Courier New_MSFontService,sans-serif" font-style="normal" font-variant="normal" font-weight="700" font-stretch="normal" font-size="83" text-anchor="start" direction="ltr" writing-mode="lr-tb" unicode-bidi="normal" text-decoration="none" transform="matrix(1 0 0 1 1124.74 1396)">BindingBlock</text><rect x="1072.5" y="1080.5" width="756" height="635" stroke="#000000" stroke-width="4.58333" stroke-linecap="butt" stroke-linejoin="miter" stroke-miterlimit="8" stroke-opacity="1" fill="#F2F2F2" fill-opacity="1"/><text fill="#000000" fill-opacity="1" font-family="Courier New,Courier New_MSFontService,sans-serif" font-style="normal" font-variant="normal" font-weight="700" font-stretch="normal" font-size="83" text-anchor="start" direction="ltr" writing-mode="lr-tb" unicode-bidi="normal" text-decoration="none" transform="matrix(1 0 0 1 1154.62 1173)">BindingBlock</text><rect x="1015.5" y="1827.5" width="756" height="166" stroke="#000000" stroke-width="4.58333" stroke-linecap="butt" stroke-linejoin="miter" stroke-miterlimit="8" stroke-opacity="1" fill="#F2F2F2" fill-opacity="1"/><text fill="#000000" fill-opacity="1" font-family="Courier New,Courier New_MSFontService,sans-serif" font-style="normal" font-variant="normal" font-weight="700" font-stretch="normal" font-size="83" text-anchor="start" direction="ltr" writing-mode="lr-tb" unicode-bidi="normal" text-decoration="none" transform="matrix(1 0 0 1 1097.62 1933)">BindingBlock</text><rect x="1042.5" y="1855.5" width="756" height="167" stroke="#000000" stroke-width="4.58333" stroke-linecap="butt" stroke-linejoin="miter" stroke-miterlimit="8" stroke-opacity="1" fill="#F2F2F2" fill-opacity="1"/><text fill="#000000" fill-opacity="1" font-family="Courier New,Courier New_MSFontService,sans-serif" font-style="normal" font-variant="normal" font-weight="700" font-stretch="normal" font-size="83" text-anchor="start" direction="ltr" writing-mode="lr-tb" unicode-bidi="normal" text-decoration="none" transform="matrix(1 0 0 1 1124.74 1962)">BindingBlock</text><rect x="1072.5" y="1880.5" width="756" height="166" stroke="#000000" stroke-width="4.58333" stroke-linecap="butt" stroke-linejoin="miter" stroke-miterlimit="8" stroke-opacity="1" fill="#F2F2F2" fill-opacity="1"/><text fill="#000000" fill-opacity="1" font-family="Courier New,Courier New_MSFontService,sans-serif" font-style="normal" font-variant="normal" font-weight="700" font-stretch="normal" font-size="83" text-anchor="start" direction="ltr" writing-mode="lr-tb" unicode-bidi="normal" text-decoration="none" transform="matrix(1 0 0 1 1129.98 1987)">DataflowBlock</text><rect x="1196.5" y="1412.5" width="454" height="111" stroke="#2E75B6" stroke-width="3.4375" stroke-linecap="butt" stroke-linejoin="round" stroke-miterlimit="10" stroke-opacity="1" fill="#DEEBF7" fill-opacity="1"/><text fill="#000000" fill-opacity="1" font-family="Courier New,Courier New_MSFontService,sans-serif" font-style="normal" font-variant="normal" font-weight="700" font-stretch="normal" font-size="64" text-anchor="start" direction="ltr" writing-mode="lr-tb" unicode-bidi="normal" text-decoration="none" transform="matrix(1 0 0 1 1228.78 1486)">VarBinding</text><rect x="1224.5" y="1438.5" width="454" height="111" stroke="#2E75B6" stroke-width="3.4375" stroke-linecap="butt" stroke-linejoin="round" stroke-miterlimit="10" stroke-opacity="1" fill="#DEEBF7" fill-opacity="1"/><text fill="#000000" fill-opacity="1" font-family="Courier New,Courier New_MSFontService,sans-serif" font-style="normal" font-variant="normal" font-weight="700" font-stretch="normal" font-size="64" text-anchor="start" direction="ltr" writing-mode="lr-tb" unicode-bidi="normal" text-decoration="none" transform="matrix(1 0 0 1 1257.23 1512)">VarBinding</text><rect x="1137.5" y="1590.5" width="183" height="111" stroke="#2E75B6" stroke-width="3.4375" stroke-linecap="butt" stroke-linejoin="round" stroke-miterlimit="10" stroke-dasharray="10.3125 3.4375" stroke-opacity="1" fill="none"/><text fill="#000000" fill-opacity="1" font-family="Courier New,Courier New_MSFontService,sans-serif" font-style="normal" font-variant="normal" font-weight="400" font-stretch="normal" font-size="64" text-anchor="start" direction="ltr" writing-mode="lr-tb" unicode-bidi="normal" text-decoration="none" transform="matrix(1 0 0 1 1170.1 1663)">Var</text><rect x="1530.5" y="1591.5" width="222" height="111" stroke="#2E75B6" stroke-width="3.4375" stroke-linecap="butt" stroke-linejoin="round" stroke-miterlimit="10" stroke-dasharray="10.3125 3.4375" stroke-opacity="1" fill="none"/><text fill="#000000" fill-opacity="1" font-family="Courier New,Courier New_MSFontService,sans-serif" font-style="normal" font-variant="normal" font-weight="400" font-stretch="normal" font-size="64" text-anchor="start" direction="ltr" writing-mode="lr-tb" unicode-bidi="normal" text-decoration="none" transform="matrix(1 0 0 1 1562.89 1664)">Expr</text><path d="M0.204888-1.12737 200.442 35.2637 200.032 37.5185-0.204888 1.12737ZM198.186 22.0432 222.785 40.4889 193.269 49.1Z" fill="#4472C4" fill-rule="nonzero" fill-opacity="1" transform="matrix(-1 0 0 1 1451.78 1549)"/><path d="M1451.24 1547.88 1618.24 1584.36 1617.75 1586.6 1450.76 1550.12ZM1616.45 1571.07 1640.38 1590.37 1610.58 1597.94Z" fill="#4472C4" fill-rule="nonzero" fill-opacity="1"/><path d="M1152.16 1715 1152.16 1745.94 1141.84 1745.94 1141.84 1715ZM1152.16 1756.25 1152.16 1787.19 1141.84 1787.19 1141.84 1756.25ZM1152.16 1797.5 1152.16 1800.85 1141.84 1800.85 1141.84 1797.5ZM1162.47 1795.69 1147 1826.63 1131.53 1795.69Z" fill="#00B050" fill-rule="nonzero" fill-opacity="1"/><text fill="#000000" fill-opacity="1" font-family="Arial,Arial_MSFontService,sans-serif" font-style="normal" font-variant="normal" font-weight="400" font-stretch="normal" font-size="55" text-anchor="start" direction="ltr" writing-mode="lr-tb" unicode-bidi="normal" text-decoration="none" transform="matrix(1 0 0 1 1196.54 1792)">No<tspan fill="#000000" fill-opacity="1" font-family="Arial,Arial_MSFontService,sans-serif" font-style="normal" font-variant="normal" font-weight="700" font-stretch="normal" font-size="55" text-anchor="start" direction="ltr" writing-mode="lr-tb" unicode-bidi="normal" text-decoration="none" x="85.3645" y="0">if</tspan><tspan fill="#000000" fill-opacity="1" font-family="Arial,Arial_MSFontService,sans-serif" font-style="normal" font-variant="normal" font-weight="700" font-stretch="normal" font-size="55" text-anchor="start" direction="ltr" writing-mode="lr-tb" unicode-bidi="normal" text-decoration="none" x="119.167" y="0">-</tspan><tspan fill="#000000" fill-opacity="1" font-family="Arial,Arial_MSFontService,sans-serif" font-style="normal" font-variant="normal" font-weight="700" font-stretch="normal" font-size="55" text-anchor="start" direction="ltr" writing-mode="lr-tb" unicode-bidi="normal" text-decoration="none" x="137.5" y="0">else</tspan><tspan fill="#000000" fill-opacity="1" font-family="Arial,Arial_MSFontService,sans-serif" font-style="normal" font-variant="normal" font-weight="400" font-stretch="normal" font-size="55" text-anchor="start" direction="ltr" writing-mode="lr-tb" unicode-bidi="normal" text-decoration="none" x="259.531" y="0">/</tspan><tspan fill="#000000" fill-opacity="1" font-family="Arial,Arial_MSFontService,sans-serif" font-style="normal" font-variant="normal" font-weight="700" font-stretch="normal" font-size="55" text-anchor="start" direction="ltr" writing-mode="lr-tb" unicode-bidi="normal" text-decoration="none" x="290.469" y="0">side</tspan><tspan fill="#000000" fill-opacity="1" font-family="Arial,Arial_MSFontService,sans-serif" font-style="normal" font-variant="normal" font-weight="700" font-stretch="normal" font-size="55" text-anchor="start" direction="ltr" writing-mode="lr-tb" unicode-bidi="normal" text-decoration="none" x="415.938" y="0">effect</tspan>?</text><rect x="1197.5" y="1235.5" width="454" height="111" stroke="#2E75B6" stroke-width="3.4375" stroke-linecap="butt" stroke-linejoin="round" stroke-miterlimit="10" stroke-opacity="1" fill="#DEEBF7" fill-opacity="1"/><text fill="#000000" fill-opacity="1" font-family="Courier New,Courier New_MSFontService,sans-serif" font-style="normal" font-variant="normal" font-weight="700" font-stretch="normal" font-size="64" text-anchor="start" direction="ltr" writing-mode="lr-tb" unicode-bidi="normal" text-decoration="none" transform="matrix(1 0 0 1 1230.2 1308)">MatchShape</text><rect x="1226.5" y="1261.5" width="454" height="111" stroke="#2E75B6" stroke-width="3.4375" stroke-linecap="butt" stroke-linejoin="round" stroke-miterlimit="10" stroke-opacity="1" fill="#DEEBF7" fill-opacity="1"/><text fill="#000000" fill-opacity="1" font-family="Courier New,Courier New_MSFontService,sans-serif" font-style="normal" font-variant="normal" font-weight="700" font-stretch="normal" font-size="64" text-anchor="start" direction="ltr" writing-mode="lr-tb" unicode-bidi="normal" text-decoration="none" transform="matrix(1 0 0 1 1258.64 1334)">MatchShape</text><rect x="1538" y="445" width="353" height="106" fill="#E7E6E6" fill-opacity="1"/><text fill="#000000" fill-opacity="1" font-family="Courier New,Courier New_MSFontService,sans-serif" font-style="normal" font-variant="normal" font-weight="400" font-stretch="normal" font-size="60" text-anchor="start" direction="ltr" writing-mode="lr-tb" unicode-bidi="normal" text-decoration="none" transform="matrix(1 0 0 1 1570.55 515)">PrimFunc</text><rect x="1538" y="562" width="425" height="106" fill="#E7E6E6" fill-opacity="1"/><text fill="#000000" fill-opacity="1" font-family="Courier New,Courier New_MSFontService,sans-serif" font-style="normal" font-variant="normal" font-weight="400" font-stretch="normal" font-size="60" text-anchor="start" direction="ltr" writing-mode="lr-tb" unicode-bidi="normal" text-decoration="none" transform="matrix(1 0 0 1 1570.55 632)">ExternFunc</text><path d="M0.668813-0.930389 2.52959 0.407238 1.19196 2.26801-0.668813 0.930389ZM4.39037 1.74486 6.25114 3.08249 4.91352 4.94327 3.05274 3.60564ZM8.11192 4.42012 9.9727 5.75774 8.63507 7.61852 6.7743 6.28089ZM11.8335 7.09537 13.6943 8.433 12.3566 10.2938 10.4959 8.95615ZM15.555 9.77062 17.4158 11.1082 16.0782 12.969 14.2174 11.6314ZM19.2766 12.4459 21.1374 13.7835 19.7997 15.6443 17.939 14.3067ZM22.9981 15.1211 24.8589 16.4588 23.5213 18.3195 21.6605 16.9819ZM26.7197 17.7964 28.5805 19.134 27.2428 20.9948 25.3821 19.6572ZM30.4412 20.4716 32.302 21.8093 30.9644 23.67 29.1036 22.3324ZM34.1628 23.1469 36.0236 24.4845 34.686 26.3453 32.8252 25.0077ZM37.8844 25.8221 39.7451 27.1598 38.4075 29.0205 36.5467 27.6829ZM41.6059 28.4974 43.4667 29.835 42.1291 31.6958 40.2683 30.3582ZM45.3275 31.1726 47.1883 32.5103 45.8506 34.371 43.9898 33.0334ZM49.049 33.8479 50.9098 35.1855 49.5722 37.0463 47.7114 35.7087ZM52.7706 36.5231 54.6314 37.8608 53.2937 39.7215 51.433 38.3839ZM56.4921 39.1984 58.3529 40.536 57.0153 42.3968 55.1545 41.0592ZM60.2137 41.8736 62.0745 43.2113 60.7368 45.0721 58.8761 43.7344ZM63.9352 44.5489 65.796 45.8865 64.4584 47.7473 62.5976 46.4097ZM67.6568 47.2242 69.5176 48.5618 68.1799 50.4226 66.3192 49.0849ZM71.3784 49.8994 73.2391 51.237 71.9015 53.0978 70.0407 51.7602ZM77.5374 38.804 91.841 66.0202 61.4859 61.1334Z" fill="#767171" fill-rule="nonzero" fill-opacity="1" transform="matrix(1 0 0 -1 1446 564.02)"/><path d="M1446.55 562.997 1448.56 564.104 1447.45 566.111 1445.45 565.003ZM1450.57 565.212 1452.57 566.32 1451.47 568.326 1449.46 567.218ZM1454.58 567.427 1456.59 568.535 1455.48 570.541 1453.47 569.433ZM1458.59 569.642 1460.6 570.75 1459.49 572.756 1457.48 571.648ZM1462.6 571.857 1464.61 572.965 1463.5 574.971 1461.5 573.864ZM1466.62 574.072 1468.62 575.18 1467.52 577.186 1465.51 576.079ZM1470.63 576.287 1472.64 577.395 1471.53 579.401 1469.52 578.294ZM1474.64 578.502 1476.65 579.61 1475.54 581.616 1473.53 580.509ZM1478.65 580.718 1480.66 581.825 1479.55 583.831 1477.55 582.724ZM1482.67 582.933 1484.67 584.04 1483.57 586.046 1481.56 584.939ZM1486.68 585.148 1488.69 586.255 1487.58 588.261 1485.57 587.154ZM1490.69 587.363 1492.7 588.47 1491.59 590.477 1489.58 589.369ZM1494.7 589.578 1496.71 590.685 1495.6 592.692 1493.6 591.584ZM1498.72 591.793 1500.72 592.9 1499.62 594.907 1497.61 593.799ZM1502.73 594.008 1504.74 595.115 1503.63 597.122 1501.62 596.014ZM1506.74 596.223 1508.75 597.331 1507.64 599.337 1505.63 598.229ZM1510.75 598.438 1512.76 599.546 1511.65 601.552 1509.65 600.444ZM1514.77 600.653 1516.77 601.761 1515.67 603.767 1513.66 602.659ZM1520.41 589.372 1537.84 614.7 1507.12 613.447Z" fill="#767171" fill-rule="nonzero" fill-opacity="1"/></g></svg>